<svg
        width="139"
        height="29"
        fill="none"
        xmlns="http://www.w3.org/2000/svg"
>
    <g clip-path="url(#a)" fill="#fff">
        <path d="M30.793 25.826h-.078v-.062c0-.055 0-.06-.034-.052h.019c.025-.014.02-.015-.024 0a.083.083 0 0 0 .034-.012c.02-.014.017-.014-.014 0a.067.067 0 0 1-.069-.015.119.119 0 0 0 .07 0c.028 0 .025 0-.018-.01a.07.07 0 0 1-.041-.01.087.087 0 0 0 .037 0c.031 0 .05 0 .043-.015-.006-.015-.008 0-.015-.012.03 0 .033-.014 0-.028-.033-.013-.057-.011-.076.023a.036.036 0 0 0 0 .02v-.036c.01-.015.014-.025.01-.029h.101s.015-.017.034-.022c.052-.016.046-.073 0-.073h-.028l-.015-.017a.117.117 0 0 1-.016-.055.18.18 0 0 0 .014.043c.02.033.09.036.136.019-.017.01-.015.012 0 .012.053 0 .069-.093.023-.136a.094.094 0 0 0-.066-.022c-.034 0-.034 0 0 0a.102.102 0 0 1 .019.01s0 .014.016.027c.015.014.034.03.04.025.004-.006 0 0 0 0a.068.068 0 0 1 0 .041h-.021c.01-.017 0-.038-.016-.062a.13.13 0 0 0-.102-.036c.038-.014.038-.014 0-.016a.079.079 0 0 0-.048.01v.01c0-.023 0-.021-.012-.01a.126.126 0 0 0 .02.137l.015.012a.045.045 0 0 1-.023 0v-.012a.201.201 0 0 1-.026-.078v-.034c0-.01 0-.018.014-.02.014-.001.01 0 0-.01a.031.031 0 0 1-.021-.008.031.031 0 0 1-.01-.02c0-.018 0-.021-.01-.01-.01.013-.053.035-.086.014a.1.1 0 0 0 .033 0c.053 0 .053 0 .008-.01h-.008a.046.046 0 0 0 .061-.041v-.016a.059.059 0 0 1-.02.017.059.059 0 0 1-.026.005.043.043 0 0 0 .038-.061s.017.027.017.01c0-.045-.08-.112-.136-.112-.057 0-.05 0-.041.033.008.032.024.03.077.03.054 0 .066 0 .08.03a.041.041 0 0 0-.023-.02c-.05-.016-.06-.01-.06.04a.078.078 0 0 0 0 .033.046.046 0 0 1-.02-.05.046.046 0 0 1 .008-.017c0-.009 0-.015-.01-.015-.011 0-.016.02-.011.051a.096.096 0 0 0 .053.074c-.034-.017-.074-.056-.063-.072.01-.015-.026-.069-.062-.033h-.02a.822.822 0 0 0-.202 0c-.031 0 0 .01.074.009h.036a.55.55 0 0 1-.172-.01h-.02a.031.031 0 0 1-.01-.023c0-.041-.027-.082-.056-.082-.03 0 0 .018.013.04.012.014.018.031.018.049a.39.39 0 0 0-.081.015.253.253 0 0 0-.043-.008c-.05 0-.06-.016-.057-.045 0 .024.033.045.079.045.047 0 .065 0 .048-.016v-.008a.017.017 0 0 0 .012 0c.036 0 .045-.017.023-.05-.023-.033-.035-.036-.04 0a.011.011 0 0 0-.005-.006.012.012 0 0 0-.007-.003h-.05a.065.065 0 0 0-.04 0 .042.042 0 0 0-.012.023.028.028 0 0 0 0-.018l.014-.01a.101.101 0 0 1 .047 0h.034a.036.036 0 0 1-.014-.047c.033-.096-.172-.156-.263-.082-.03.022-.028.077 0 .088.027.01.033.038 0 .038s-.024 0-.012.012c-.016 0-.02 0-.016.04.005.039-.048.065-.093.029.042.03.088.013.088-.031 0-.045-.046-.057-.086-.018-.04.04-.024.031 0 .049-.012-.012-.02-.016-.02-.009a.033.033 0 0 0 .011.02l-.01-.011c-.041-.097-.272-.11-.263-.024l-.017-.014c-.018-.012-.028-.024-.024-.028.003-.003-.028 0-.071 0-.074 0-.078 0-.072.04v.024-.028c0-.024-.014-.04-.021-.032-.007.007 0 0 0 0v-.016a.068.068 0 0 0-.012.012.043.043 0 0 0-.016.041.088.088 0 0 0 0-.024.025.025 0 0 1 .014-.013c.012 0-.014-.009-.057-.01h-.077v.063a.13.13 0 0 1 0 .036s-.014 0-.024.012c.01-.014.01-.015 0 0l-.03.01c.033-.013.045-.12.012-.12-.002 0-.005 0-.008.002a.015.015 0 0 0-.005.007.436.436 0 0 0-.288.027c0-.026-.024-.024-.034.012-.01.036.058.07.141.081a.424.424 0 0 1-.124-.017l-.022-.01c-.012-.035 0-.083.015-.09.016-.007.012-.009 0-.01.024-.01-.02-.018-.095-.021h.047l-.048-.014h.057c-.02 0-.121-.024-.104-.01a.228.228 0 0 0-.125 0h.008c.01 0 .016 0 .017-.01.09.008.18.008.269 0a1.142 1.142 0 0 0-.229-.018 1.308 1.308 0 0 0-.22 0c.05.01.102.014.153.014a.2.2 0 0 0-.043.01h-.012a.13.13 0 0 1-.036 0c-.06-.02-.088-.02-.066 0a.14.14 0 0 1-.08-.056.109.109 0 0 0-.16-.033h-.011v.01c0 .01 0 0 0 0h-.024c-.014 0-.02.026-.016.033.005.007-.043.012-.105.012a.293.293 0 0 0-.124.015c0-.008.009-.013 0-.013l-.067.019a.317.317 0 0 1-.052 0H27.473a.2.2 0 0 0-.081 0s-.01 0-.012-.012a.133.133 0 0 0-.042-.049h.031c.007 0 0 0 0 0a.02.02 0 0 1 0 .01c0 .018.035.023.164.026.129.004.172 0 .172-.015-.01-.047-.065-.064-.184-.059-.119.006-.117 0-.11-.022.006-.022-.038-.04-.078-.017-.04.022-.01.038 0 .058-.01-.024-.015-.027-.017-.012a.065.065 0 0 1 .024-.05.072.072 0 0 1 .058-.008.07.07 0 0 1 .045.038v-.012c0-.085-.14-.059-.148.027 0 .048 0 .07.017.07.018 0-.012.018-.055.037h.009s0-.019-.031 0a.346.346 0 0 1-.124.012h.055-.122.033a.656.656 0 0 0-.093 0 .088.088 0 0 1-.035-.031.089.089 0 0 0-.017-.027c0-.01 0-.02-.019-.031a1.601 1.601 0 0 0-.472 0c-.015.01-.026.017-.029.025v-.038h-.386v.018s-.008.017-.008.04a.03.03 0 0 1-.012.024c.017-.018 0-.082-.02-.082-.021 0-.011.02 0 .042-.011-.047-.345-.054-.345 0 0 0-.014 0-.031-.012-.054-.045-.112-.037-.105.015 0-.053-.038-.058-.038 0a.066.066 0 0 0 .022.054.079.079 0 0 1-.027-.049v-.051.048a.087.087 0 0 0 .046.084.094.094 0 0 1-.029-.015h-.01a.085.085 0 0 1-.014-.045v-.06h-.112c-.08 0-.108.008-.096.02.005.004.009.008.012.013a.044.044 0 0 1 .006.035.047.047 0 0 1-.008.016l-.062.02h-.034a.498.498 0 0 1-.173 0h-.024a.687.687 0 0 0 .14-.011l.043-.014h-.043c-.024 0-.088 0-.14.012h-.136c.01.007.02.011.031.014h-.086l-.043-.01.069-.01h.03c.109.01.22 0 .326-.027.031-.048-.019-.056-.354-.062h-.345v.038c.01-.045 0-.055-.024-.017s.048.067.138.08h-.093c-.043-.013-.067-.028-.064-.047.004-.02 0-.042 0-.038 0 .003.009-.02-.027-.02s-.045 0-.03.034a.098.098 0 0 1 .01.027s-.013.009-.023.024a.04.04 0 0 0 .01-.038c0-.012-.012 0-.017.014a.048.048 0 0 0-.009-.041c-.015-.026-.017-.024-.019.014v-.037l-.043.016c-.053.02-.05.064 0 .064h.01-.012c-.012 0-.03 0 .01.008.012.003.023.003.034 0a.044.044 0 0 1-.023.01h-.048a.059.059 0 0 1 0-.091c.019-.012.019-.014 0-.008a.05.05 0 0 0-.022.016.05.05 0 0 0-.01.025c0 .05-.281.055-.281 0a.043.043 0 0 0-.038-.04c-.04-.01-.054 0-.04 0a.116.116 0 0 0-.045-.015c-.022 0-.022 0 0 .01a.19.19 0 0 1 .047.036c-.031-.04-.143-.065-.172-.036v-.02s-.016.022-.016.048c0 .055.02.062.122.048l.078-.01h-.093c-.07 0-.086 0-.088-.024a.173.173 0 0 0 .104.02c.098 0 .103 0 .084-.029.014.017.03.024.04.02a.041.041 0 0 1-.016.014.057.057 0 0 0-.04.009.284.284 0 0 1-.122.028h-.019a.13.13 0 0 1-.065-.042.038.038 0 0 0-.02-.019c.011-.022 0-.027-.01-.012-.01.016 0 0 0-.01s.014-.033 0-.033a.084.084 0 0 1-.051-.036c-.023-.033-.04-.036-.162-.036h-.158v.153h-.105a.38.38 0 0 0-.123.014h-.06a.97.97 0 0 1-.11.014c.113-.018.008-.018-.172 0h-.057a.515.515 0 0 1-.145-.016.065.065 0 0 0-.069 0 .382.382 0 0 1-.086.03l-.051.012h.051c.02 0 .04-.004.059-.01a.295.295 0 0 1-.152.023s-.008 0-.04-.015a.143.143 0 0 1-.042-.014v-.019a.158.158 0 0 1-.026-.069c0-.046 0-.046-.01 0v.035c-.01-.038-.016-.052-.018-.042v-.029s-.013.03-.013.066a.143.143 0 0 1 0 .04s-.016 0-.026.013l-.03.01a.054.054 0 0 0 .023-.008c.038-.024.053-.093.024-.11v.011c-.01-.02-.03-.015-.034.023v.045h-.038c.036 0 .04-.021.043-.047v-.046h-.319c-.172 0-.344 0-.358.01-.014.01-.04.017-.04.034 0 .018.028.031.32.042h.238-.036c-.113 0-.153.012-.105.015.198.016.312 0 .327-.053 0 .038-.017.057-.077.065h-.08c.02.003.04.003.06 0h-.264a.87.87 0 0 0 .32 0 .685.685 0 0 1-.108.018h-.178a4.475 4.475 0 0 0-.36-.016c.038 0 .1 0 .173.012h.146a1.398 1.398 0 0 0-.198-.017h.09-.238c-.043-.028-.06-.078-.012-.1.01 0 .008 0 0 0-.009 0-.026.022-.031.043l-.01.04-.01-.038c-.015-.045-.128-.047-.128 0 0 .046-.033.044-.07.057h-.042c-.042 0-.054 0-.035.015-.05-.02-.043-.074.012-.096.056-.023.035-.014 0-.01-.034.003-.044.013-.048.039a.045.045 0 0 1-.09 0c0-.102-.025-.122-.147-.122-.123 0-.114 0-.114.04 0 .042 0 .04-.057.042h-.079l.06.014c-.017 0-.032 0-.032.012a1.189 1.189 0 0 0-.422-.012c-.017.014-.028.014-.036 0-.009-.014-.157-.019-.191.016a.029.029 0 0 1-.01.01c0-.012.008-.02 0-.022.035-.02.035-.02 0-.021a.074.074 0 0 0-.05.017c-.015.022 0 .026.022.014v.01c-.014.033 0 .04.017.017 0 .021.04.023.238.031h.06c-.05 0-.038 0 .008.02a.381.381 0 0 1-.02 0c-.023 0-.016 0 .019.013.102.027.21.024.311-.008.036-.014.031-.016-.026 0a.765.765 0 0 1-.098 0c.13-.014.141-.025.04-.028.132 0 .224-.017.224-.033 0-.015-.014-.015-.031-.015-.018 0 .014 0 .014-.01 0-.011 0 0 0 0l.025.013v.017a.018.018 0 0 1 0 .014l-.043.01-.053.014h.062c-.024 0-.083.018-.131.03s-.069.02-.026.015c.052-.006.103-.014.153-.026a.06.06 0 0 1-.019 0l-.151.028-.074.008a.156.156 0 0 0-.048 0h-.047a.432.432 0 0 1-.09-.036h.01c.02 0 .011-.012-.028-.026-.04-.013-.041-.013-.043-.012-.002.002-.02-.017-.035 0-.014.018-.01 0-.029 0-.019 0-.015-.008-.04-.008a.237.237 0 0 0 .042 0c.038-.012.027-.016-.059-.016s-.098 0-.044.016a.285.285 0 0 0 .04 0c-.032 0-.053 0-.05.008h-.021a.318.318 0 0 0-.07-.02s-.022-.009-.05 0c-.027.008-.051 0-.061-.035-.01-.034-.023-.041-.05-.041h-.04l.04.014c.055.02.055.05.026.074l-.088.019-.055.013-.03-.008c-.09-.023-.105-.03-.098-.059.014.038.092.06.172.042.052-.012.045-.014-.051-.016-.097-.002-.105 0-.104-.024 0 .02.037.022.13.022s.13 0 .124-.019c-.018-.051-.228-.08-.245-.036 0-.026 0-.03-.017-.014v-.015c.062-.02.02-.083-.06-.083-.116 0-.155.024-.172.097-.018.072-.13.108-.13.05 0-.059-.067-.049-.115 0a.263.263 0 0 1-.048.032s-.009 0-.045.009l-.052.012c.021-.01.014-.01-.025 0a.172.172 0 0 1-.114-.015.25.25 0 0 0 .148 0l.069-.014h-.055c.041-.009.074-.024.06-.038a.221.221 0 0 0-.172-.036.03.03 0 0 0-.01.017c0-.036-.049-.04-.064 0a.046.046 0 0 0 0 .034.045.045 0 0 1 0-.025c.01-.043 0-.054-.014-.02v-.022l-.026.016c.017-.01.014-.014-.015-.016-.03-.002-.04.009-.04.064a.179.179 0 0 1 0 .033c0-.01 0-.01-.019 0a.05.05 0 0 0 0-.068l-.02-.036.01.037c.017.06-.019.084-.112.075h-.014c.055 0 .116-.027.116-.055 0-.027 0-.05-.014-.05s-.012.02 0 .043c0-.036-.07-.05-.155-.032h-.009a.743.743 0 0 0-.196-.01c-.201 0-.21 0-.195.028a.068.068 0 0 1 .01.021h-.01s-.034.02-.09.023h-.092.084a.158.158 0 0 0 .112-.02v.01l-.014.01a.228.228 0 0 1-.184 0c-.027-.009-.041-.01-.03 0l.017.01a.173.173 0 0 0-.173 0h.009c.014-.02 0-.02-.026 0a.139.139 0 0 1-.08 0h-.119a.286.286 0 0 0-.06 0h-.03.145-.114.122c.172 0 .198-.009.146-.055-.051-.047-.065-.031-.103 0l-.03.033-.034-.033a.122.122 0 0 0-.13-.02.04.04 0 0 0-.022.038c-.013-.017-.01-.034.022-.044.03-.01.01-.009 0-.01a.045.045 0 0 0-.038.032c0-.034 0-.04-.017-.022a.045.045 0 0 0-.012.014c.013-.02.008-.026-.025-.026-.032 0-.041 0-.032.033a.124.124 0 0 1 0 .05v-.009c0-.009 0 0-.01 0-.011 0 0-.031 0-.031s-.018.015-.023.034a.262.262 0 0 0 0-.04c0-.047-.041-.061-.059-.018a.11.11 0 0 0 0 .067c.014.033.028.033.038.01 0 .024-.014.024-.036.009l-.017-.012a.086.086 0 0 1-.016-.059v-.024s-.015.014-.015.033c0 .016.004.032.01.046-.019-.032-.02-.074.01-.084.032-.01 0-.01-.023-.01-.025 0-.044 0-.038.022.005.023 0-.012 0-.014v.016a.035.035 0 0 0-.014-.017c-.01 0-.017.01-.017.04 0-.028 0-.049-.012-.049l-.044.01c-.025 0-.058.07-.034.07l.052.01h.015-.043l-.04-.02.04.035c-.04-.03-.074-.034-.22-.034-.146 0-.172 0-.196-.031a.142.142 0 0 0-.085-.043c-.057 0-.058 0-.02.012 0 0 0 .008.013.017a.854.854 0 0 0-.117-.016h.014a.091.091 0 0 0 .045-.013h-.045c-.024 0-.043 0-.043.013 0 .014 0 0 .009 0a5.39 5.39 0 0 0-.493-.012h-.068.011c-.05 0-.063.014-.063.035a.026.026 0 0 0-.02-.012h.011c.045-.023.045-.024.01-.024a.113.113 0 0 0-.063.022c-.03.027-.047.017-.047-.034 0-.052-.125-.088-.144-.021-.009.033.019.04.048.015-.01.016 0 .018.03.023.032.005.021.01.02.019a.062.062 0 0 0 .01.022s-.014 0-.012-.019-.15-.033-.172 0c-.023.033-.02.059.093.059.063 0 .112 0 .114-.016.001-.015.015 0 .017 0 0 .035-.057.06-.116.067h.033c.064-.027.04-.034-.03-.01.034-.014.03-.015-.027-.014-.057.002-.053 0-.043.012-.019-.01-.033-.01-.033 0s0 0-.008 0c-.03-.032-.11-.04-.119 0a.154.154 0 0 0-.05.009h-.07.017l.101-.016h-.118c-.081 0-.114 0-.102.016a.045.045 0 0 0 .026 0c-.02 0-.031 0-.03.01a.051.051 0 0 0 .026 0h-.019a.042.042 0 0 1-.017-.017c0-.02-.015-.03-.017-.019-.002.01 0 .019-.02.022.022-.012.011-.015-.042-.013-.053.001-.06 0-.036.012h-.01c-.038-.014-.054-.016-.071 0-.017.015-.019 0-.048.01a.495.495 0 0 1-.15.016.46.46 0 0 0-.134.013h.03-.066a.515.515 0 0 1-.131-.029.644.644 0 0 0 .077.02h.035c-.05-.022-.147-.037-.133-.025a.17.17 0 0 1-.043-.024.115.115 0 0 0 0-.028.1.1 0 0 0 0-.033.083.083 0 0 1 .024-.008c.026 0-.014-.012-.1-.014-.143 0-.144 0-.144.04s0 .04-.092.041a.265.265 0 0 0-.124.024.171.171 0 0 1-.067.02.142.142 0 0 0 .067-.021c.031-.023.03-.023-.018 0a.16.16 0 0 1-.045 0H13.585a.67.67 0 0 1-.096-.018c-.018 0 0 0 .02.016a.249.249 0 0 0 .05.015.38.38 0 0 1-.072-.02l-.055-.021h-.004a.087.087 0 0 0 .057-.026c-.013.023.018.03.114.03s.122 0 .122-.025a.023.023 0 0 0-.005-.016.023.023 0 0 0-.014-.008c-.008 0-.014 0-.008-.012.005-.012-.021-.017-.068-.01h.01a.117.117 0 0 0-.054 0c-.028 0-.052 0-.052.014 0 .013.014 0 .031 0h-.03s-.013 0-.027.012c-.013.012 0 0 0 .008 0 .009.01-.02 0-.02l.04-.02-.095.01a.184.184 0 0 0-.155.073.276.276 0 0 1-.041.04c.01-.01 0-.016-.012-.017h-.067a.327.327 0 0 1-.07-.01.12.12 0 0 0-.032 0v-.01h.01a.026.026 0 0 0 .021-.013c.031.014.066.02.1.015.072 0 .091 0 .09-.022 0-.052-.066-.064-.147-.033h.009c.026-.012.036-.02.022-.02a.233.233 0 0 0-.064.019.103.103 0 0 0-.04.032.08.08 0 0 1 .04-.034c.038-.017.037-.017 0-.014-.036.003-.048.017-.061.052v.026a.15.15 0 0 0-.04.017 1.303 1.303 0 0 1-.29.01h-.251c-.024-.012-.029-.01-.024 0a.207.207 0 0 0-.213-.115c-.083 0-.104 0-.092.02-.015-.013-.018 0-.012.024 0-.034 0-.032-.015.01-.016.044-.014.05-.05.046-.036-.004-.04 0 0 .01s.08-.014.074-.064c0 .055-.026.083-.08.064-.023-.009-.047-.012-.053 0-.005.012 0 0 0 .01a.14.14 0 0 0-.084-.012l.03-.01h.034-.035a.121.121 0 0 0-.069.022H11.856c.041-.01.084-.03.076-.044-.009-.014 0 0 .017 0s.03.015.03.008c0-.007.01 0 .02 0 .045.042.119.023.119-.03v-.05.042c0-.045-.01-.048-.057-.022a.05.05 0 0 0-.024.02c0-.008 0-.011-.024-.011a.068.068 0 0 0 .034-.013c.019-.01 0-.013-.055-.012-.055.002-.077.009-.072.016.005.007.029.014.056.014-.025 0-.044.012-.048.022 0-.022-.026-.048-.084-.052-.059-.003-.074 0-.076.009a.285.285 0 0 1 0 .041c0 .033.04.049.105.037a.148.148 0 0 0-.046.013c-.033 0-.037 0-.012.016h.017-.035a.028.028 0 0 1-.012-.012c-.022-.038-.067-.04-.108-.009l-.033.009h-.04a.11.11 0 0 0 .039 0 .08.08 0 0 0 .037-.021h-.024c-.013 0-.008 0-.027-.01a.052.052 0 0 1-.026-.012c.027.013.077.013.077-.009s-.144-.105-.162-.065c0-.021 0-.021-.017 0a.05.05 0 0 0-.015.027v-.046.051a.071.071 0 0 0 0 .028.09.09 0 0 1-.01-.022v-.042c0-.012-.014-.015-.037-.015-.022 0-.038 0-.02.024v-.009c0-.008-.024-.017-.018.026.007.043 0 .055-.084.052-.04 0-.04 0 0 .013a.1.1 0 0 0 .09 0c-.021.023-.043.025-.09 0a.127.127 0 0 0-.076 0 .252.252 0 0 1-.088.014.26.26 0 0 0 .088-.015c.033-.014.023-.014-.046 0h-.088a.135.135 0 0 1-.043 0c-.04-.02-.04-.02-.012 0 .02.014.043.023.067.024a.123.123 0 0 1-.1-.012c-.026-.024-.033-.024-.094 0h-.021c.03-.017.033-.02 0-.014a.649.649 0 0 1-.097.02l.054-.013c.026 0 0-.009-.072 0h-.01c.03 0 .063 0 .1-.014.039-.014.037-.01-.03 0 .072 0 .136-.022.136-.041 0-.052-.332-.078-.345-.028 0-.01 0-.02-.012-.02s-.017.022-.017.048c0 .026.028.058.085.063-.064 0-.085-.022-.09-.067v-.051.051a.058.058 0 0 0 .022.049.059.059 0 0 1-.029-.04v-.059s-.015-.015-.019-.036c-.003-.02-.107-.062-.14-.03a.119.119 0 0 0 0 .134.736.736 0 0 1-.171.013c-.19 0-.2 0-.217-.036a.083.083 0 0 0-.052-.041c-.033 0-.03 0 0 .02.031.021.034.033.033.047l-.038-.03c-.059-.046-.184-.056-.208-.02 0-.022 0-.02-.016 0v-.015l-.014.012c0-.018 0-.018-.015 0-.016.017 0 0 0 0v-.021s-.02-.017-.026-.041c-.007-.025-.012-.04-.172-.037h-.16v.121l.05-.024a.191.191 0 0 1 .137-.016v.04c-.01-.035-.04-.038-.134-.019-.03 0-.055.02-.058.035-.004.013 0 .017 0 0 0 .008.025.015.075.015a.184.184 0 0 0 .064 0 .147.147 0 0 1-.05.01h-.065.056a.158.158 0 0 0 .073 0L9.505 25h-.076c-.053-.01-.07-.01-.057 0a.292.292 0 0 0-.235.012c.013-.01 0-.01-.049 0h-.062a.11.11 0 0 0-.034 0H8.889c.02 0 0-.014-.06-.015.008 0 .008 0 0 0a.353.353 0 0 0-.057-.01h.28a.263.263 0 0 0-.086.015.473.473 0 0 0 .158 0 .182.182 0 0 0-.055 0c.073 0 .068-.012.06-.033a.06.06 0 0 0-.032-.04H8.61c-.05 0-.1-.003-.15-.008-.127 0-.134 0-.144.025.012-.034-.036-.05-.065-.022a.047.047 0 0 0-.02.036c-.01-.046-.01-.044 0 0a.08.08 0 0 0 .052.067.077.077 0 0 1-.058-.07c0-.033-.014-.047-.016-.033a.173.173 0 0 0 0 .057v-.007c0-.03 0-.058-.015-.058-.016 0-.014.029-.014.065a.145.145 0 0 1 0 .045.094.094 0 0 0-.033.01.072.072 0 0 0 .033-.072c0-.038 0-.038-.01 0a.09.09 0 0 1-.082.074.09.09 0 0 1-.039-.005h-.02.01a.172.172 0 0 0-.12.027s.017.01.05 0c.02 0 .04-.005.06-.014.018.012.04.017.062.014l-.021.01a1.62 1.62 0 0 1-.22 0h.051-.03.039a.422.422 0 0 0-.095-.022h-.043.014c-.098-.02-.14-.022-.162 0h-.01a.312.312 0 0 0-.117-.014h-.135l.12.016a.583.583 0 0 0 .114 0 1 1 0 0 1-.234-.02.1.1 0 0 0-.034 0 .017.017 0 0 1-.009-.013c0-.014 0-.02-.017-.014-.017.007-.017 0-.017-.015 0-.016-.062-.062-.105-.041a.056.056 0 0 0-.035.04c0 .044-.098.03-.112-.016-.013-.047-.022-.042-.043-.042-.02 0-.036-.015-.043-.041-.017-.059-.24-.055-.251 0 0 .027-.017.038-.052.038-.034 0-.034 0-.017.01a.036.036 0 0 1 .017.01v.026c-.01-.032-.017-.038-.02-.017a.033.033 0 0 0-.017-.02v.024a.056.056 0 0 0-.052-.031c-.041 0-.048 0-.048.04v.027-.026c0-.026-.01-.041-.018-.035a.057.057 0 0 0-.017.032l-.008-.049v.049a.137.137 0 0 0 0 .029v-.045c0-.022-.01-.026-.059-.026-.048 0-.053 0-.057.016l-.01.056a.09.09 0 0 1-.03.045.097.097 0 0 0 .023-.072c0-.043 0-.043-.014.012a.17.17 0 0 1 0 .02v-.017c0-.029 0-.053-.01-.053s-.012.014-.014.031v-.01c-.22-.02-.441-.02-.66 0a.04.04 0 0 0-.023.038.04.04 0 0 1 .022-.038c.012 0 .014-.009 0-.01a.123.123 0 0 0-.045.015c.012 0 .018-.017 0-.017h-.013c.012-.024-.042-.08-.099-.081-.106 0-.172.041-.134.087l.01.014s-.008 0 0 .016a.047.047 0 0 1-.013.05.055.055 0 0 0 0-.062c-.018-.033-.018-.033-.016 0a.05.05 0 0 0-.035-.034.05.05 0 0 0-.047.013h.013-.015c-.035.024-.026.052.017.052h.024a.106.106 0 0 1-.027.008c-.047 0-.045 0 0 .009h.027-.014a.122.122 0 0 0-.036 0h-.017c-.026-.03-.069-.033-.126 0l-.024-.009c.03 0 .048-.022.033-.036-.016-.014-.012 0-.012 0a.058.058 0 0 0-.02-.027c-.037-.033-.075-.028-.085.01-.01.038 0 .031.05.031h.02H4.998c-.038 0-.038 0-.012.017l.036.012c-.062 0-.098-.051-.035-.093l.04-.026h-.053c-.038 0-.048 0-.047.031a.172.172 0 0 0-.107-.03c-.08 0-.082 0-.077.04v.018-.017c0-.064-.041-.055-.034.008.006.064.048.066.105.062a.173.173 0 0 1-.099-.017c-.013-.01-.018-.012-.02-.01-.02-.055-.038-.062-.038-.017v.019H4.64a.065.065 0 0 1-.024.01c.02 0 .029-.024.029-.053 0-.06-.031-.063-.038 0v-.045h-.148a.303.303 0 0 0-.148.02c-.012.014-.012.023 0 .031a.038.038 0 0 0-.012-.01H4.29a.048.048 0 0 0-.038-.031c-.032 0-.041 0-.041.03-.01-.049-.01-.049-.024-.011-.014.038.02.09.083.067.062-.022.051-.027.044-.043.01.016.05.026.12.03h-.022l.078.015a.235.235 0 0 0 .107 0l-.042.01h-.089a.405.405 0 0 0-.13 0c-.01-.015-.02-.014-.04 0a.08.08 0 0 0-.032 0h-.01l.035-.014c.03-.015.05-.027.04-.027a.124.124 0 0 0-.05.017.097.097 0 0 1-.061 0c-.022 0-.024 0 0 .009a.041.041 0 0 0-.031-.017.064.064 0 0 1 0-.075c.015-.024.01-.029-.031-.027-.041.002-.04 0-.028.01s0 0 .01 0v.024a.031.031 0 0 1 0 .018.052.052 0 0 0-.027-.06c-.015 0-.015 0 0 .018a.077.077 0 0 0-.045-.017c-.03 0-.036 0-.029.03 0 0-.045-.025-.079 0-.034.023-.034.056.03.056.028 0 .047 0 .056-.014.009-.014-.017.016-.05.02-.033.003-.022 0 .03 0 .051 0 .096-.03.098-.054a.07.07 0 0 1 0 .048.173.173 0 0 1-.047.016h-.086a.286.286 0 0 0-.059 0c-.025-.023-.079-.023-.156 0 .02-.009.014-.012-.033-.012h-.045a.025.025 0 0 1-.01-.01.024.024 0 0 1-.003-.013.022.022 0 0 0 .02 0l.028.01c.027.01.044-.013.038-.025-.007-.012 0 0 0 0s.02.022.027.017c.007-.005 0-.024-.022-.04.027.026.029.026.022 0-.007-.026-.107-.052-.146-.022-.04.03-.024.014-.024 0s-.021-.02-.049-.02h-.046l.038.027c.034.022.041.04.03.057l-.042.013c.017-.01 0-.012-.023 0 .05-.015.074-.056.025-.046-.01 0-.018 0-.016-.014a.024.024 0 0 0-.019-.026c-.014 0-.017 0-.01.03-.02-.054-.083-.045-.076.01.007.055.014.04.034.038h-.015s-.017-.017-.022-.043c-.006-.026-.016-.04-.023-.033 0-.017 0-.016-.015 0a.043.043 0 0 0-.01.015v-.027h-.31c-.305 0-.309 0-.314.041-.005.042-.09.055-.091.017 0-.012 0 0-.017.016a.07.07 0 0 1-.024.033c0-.009 0-.012-.024 0a.127.127 0 0 1-.076 0c-.038-.018-.04-.018 0 0h.01c-.038-.021-.058-.023-.084 0h-.05c-.064-.023-.081-.021-.103 0l-.013.008c0-.008-.013 0-.06 0a.475.475 0 0 1-.082 0h-.073a.229.229 0 0 0-.079 0 .986.986 0 0 1-.172-.017h-.062l.052.017c-.097-.02-.13-.02-.093 0h.015-.048c-.024 0-.028-.019-.017-.04h.01l.193.014h.041c-.096 0-.138 0-.103.01.165.016.332.016.497 0a.282.282 0 0 0-.094-.008.598.598 0 0 0 .194.036c0-.027-.043-.041-.067-.019-.024.023-.019.012-.019 0s-.012 0-.027 0c-.016 0-.024.016-.016 0 .024-.06-.456-.067-.584 0a.442.442 0 0 1 .062-.029c.023-.008.023-.008 0-.008a.286.286 0 0 0-.122.05.112.112 0 0 1 .043-.03c.035-.014.06-.034.06-.048 0-.048-.172-.078-.222-.036a.09.09 0 0 0 .01.124c.028.015.028.017 0 .017a.083.083 0 0 1-.053-.026c-.022-.03-.096-.043-.096-.019 0 .024-.009.01-.019 0s-.017 0-.01.016c.007.015 0 .026 0 .027h-.21c-.183 0-.2 0-.224.04a.075.075 0 0 1-.047.036c-.01 0-.013.012-.013.03a.029.029 0 0 0-.01-.02l-.01.01a.02.02 0 0 0-.008-.01s-.012.012-.012.037a.091.091 0 0 1 0-.002c0-.043-.048-.05-.084-.016-.036.035-.031.049.019.059-.04 0-.04 0 0 .022-.023-.008-.031-.01-.031 0s-.042-.024-.12-.022c-.077.002-.085 0-.065.009a.035.035 0 0 1 .021.013v.025a.152.152 0 0 0-.03.04c-.015.023-.015.028 0 .021.013-.006.018 0 .018.014 0 .007.003.013.007.017.005.005.01.007.017.007l-.01.009a.049.049 0 0 0-.027.043.048.048 0 0 0 .027.043h.008v.031a.047.047 0 0 0-.075-.027.047.047 0 0 0-.016.027c-.02.081.016.255.055.269 0 0 .014-.009.02-.028 0 .03 0 .026.018-.013a.074.074 0 0 0 0-.021.515.515 0 0 0 .02-.081c0 .078-.023.157-.063.157s-.015.079.019.096v.028a.027.027 0 0 0-.009-.016c-.01-.01-.013 0-.008.024 0-.036-.04-.051-.055-.026a.02.02 0 0 1-.024.01s-.014 0-.014.025c0 .024.014.031.05.031a.082.082 0 0 0 .036 0s0 .009-.009.009c-.008 0-.015 0 0 0a.04.04 0 0 0 .031-.028c0 .014-.01.024-.032.033l-.021.01H.46c.01.006.02.01.032.012-.027 0-.05-.014-.05-.027 0-.014-.029-.016-.065-.016H.312V25.983v-.1.062a.185.185 0 0 1 0 .055c.01-.052 0-.126-.01-.126-.011 0 0 .009 0 .02l-.027.027s-.01 0-.012.022a.045.045 0 1 0-.056.06c-.05.009-.054.064 0 .078.053.014.067-.028.08-.07 0 .046-.029.08-.058.075-.03-.005-.036 0-.033 0-.015-.015-.02-.015-.02 0a.033.033 0 0 0-.004.007.162.162 0 0 0-.103-.028H0v.093c0 .11.009.126.077.14l.052.01-.046-.024H.074c.028.014.031.01.022-.015-.008-.026 0 0 0 0 .003.009.008.017.016.023.007.007.016.01.026.011a.049.049 0 0 0 .034-.038.058.058 0 0 1-.033.031c-.025 0-.025 0 0 0a.058.058 0 0 0 .05-.023.058.058 0 0 0 .009-.053s.009 0 .01.014a.059.059 0 0 0 .009.023c-.009.032 0 .037 0 .02a.115.115 0 0 0 .01-.02l-.008.036h.105c.062 0 .103 0 .103.017s.01.012.022 0c.1-.011.2-.011.3 0h.02a.13.13 0 0 1 .042.017 1.071 1.071 0 0 0-.372-.017s.052.01.126.009a.533.533 0 0 1 .218.017H.69h.02H.66a.16.16 0 0 0-.05 0 .934.934 0 0 0-.172 0 .045.045 0 0 0-.012.03c0 .011 0 .011.014 0v.015c-.02.069 0 .075.184.075h.172v-.046c0 .026.009.046.017.046.009 0 .02-.034.016-.063v.017l.01.055v-.027a.095.095 0 0 0-.022-.07.122.122 0 0 1 .043.07c0 .046.008.044.01-.01a.086.086 0 0 0-.026-.078c.016.02.024.046.023.072v.053h.137c.085 0 .14 0 .14-.015 0-.016.019-.028.043-.035l-.017.01c-.031.023-.031.023.013 0l.021.003a.093.093 0 0 0-.033.015c-.032.024-.032.024 0 0 .033-.024.081 0 .092.031a.06.06 0 0 0-.055-.03c-.049 0-.05 0-.012.011a.06.06 0 0 1 .03 0 .08.08 0 0 0-.034 0c-.04 0-.05 0-.05.038a.046.046 0 0 0 .091 0c0 .03 0 .038.01.03a.042.042 0 0 0 .023-.04c0 .034 0 .034.01 0a.088.088 0 0 0 0-.043.107.107 0 0 1 0 .04v.039-.014c0 .022.014.022.057.022.043 0 .055 0 .035-.017-.021-.017 0 0 0-.014 0-.046 0-.06.044-.079-.012 0 0 .01.054 0a.453.453 0 0 0 .079-.014l.05.018.052.024a.012.012 0 0 0 .019 0h.032a.06.06 0 0 1 .028.014v.015a.609.609 0 0 0-.295-.012.284.284 0 0 1 .085-.014c.08 0 .09 0 .046-.014a.204.204 0 0 0-.148 0 .26.26 0 0 0-.048.023c-.012.01.03.072.052.072.02 0 .015 0 0-.017-.016-.017-.018-.026-.012-.035 0 .037.051.049.125.037l-.058.015.077-.009a.358.358 0 0 0 .083-.015c0 .017-.035.024-.09.024-.055 0-.079 0-.079.022 0 .071.13.083.162.016.015-.034.03-.045.064-.041.032.003.032 0 .017 0a.186.186 0 0 1-.05-.028.016.016 0 0 0-.017.004.1.1 0 0 0-.038 0l.043-.02c.024-.012.034-.01.043.01.008.018.026.02.034 0 .009-.021 0 .023 0 .027 0 .003.016-.009.016-.033v-.017.01c0 .024 0 .024 0 0 0-.027-.014-.038-.047-.04.035 0 .047 0 .055.028.009.028.01.024.018.019v.012l-.026.035h.244c.191 0 .243 0 .233.02h.022c-.033 0-.03.07 0 .107.031.038.053.036.048-.057a.193.193 0 0 0-.013-.06c.012 0 .024 0 .04.012a.066.066 0 0 0 0 .031.173.173 0 0 0 .016.053.062.062 0 0 1-.019.04c-.01 0 0 .012.035.014.055 0 .113.03.113.062 0 .03.173.022.212-.02l.04-.035h-.07a.194.194 0 0 1-.042 0 .021.021 0 0 0 0-.012l.009-.021c-.01.02 0 .04.037.04.038 0 .033-.01.026-.04 0 .03.017.034.088.034.07 0 .084 0 .09-.034 0 .036 0 .04.051.04.052 0 .059 0 .059-.04s0-.035.013-.036a.04.04 0 0 0-.013.036c0 .022 0 .04.019.04s.017-.018.017-.04a.098.098 0 0 0 0-.026c.002.01.002.02 0 .03v.044l.019-.038v-.014c0 .023 0 .038.012.033a.043.043 0 0 0 .015-.015c0 .022 0 .026.047.026.046 0 .055 0 .058.038.199.05.405.058.606.025 0-.032.059-.062.126-.062s.065 0 .065.055.037.105.073.105.084-.032.084-.056.203-.033.217.008c.014.042.09.043.117 0 .028-.043.041-.032.26-.032s.23 0 .23-.021c.003.005.006.01.011.014.012 0 .014 0 0-.03-.014-.029 0 0 0 0v-.008a.114.114 0 0 1 .01-.02.074.074 0 0 0 0 .049c.01.022.014.02.02-.015v-.012.008c0 .033 0 .04.039.036.06 0 .064-.079 0-.079h-.017.012c.012 0 .03 0-.01-.01a.067.067 0 0 0-.057.02.053.053 0 0 1 .074-.022c.022 0 .038.01.032 0a.053.053 0 0 0-.015-.012h.017c.02.014.043.022.067.024.031 0 .043 0 .043.035 0 .034 0 .029.035.015 0 0 .02.014.077.015.04 0 .079.004.117.012a.04.04 0 0 1 .01.021c0 .017 0 .02.01 0 .02-.045.345-.026.37.02a.083.083 0 0 0 .144 0 .068.068 0 0 1 .07-.04c.044 0 .049 0 .038-.038v-.012a.077.077 0 0 0 .062.05c.025 0 .033-.01.033-.04 0 .02 0 .038.017.038.042 0 .012-.074-.027-.088.03 0 .038.014.046.048.009.035.012.045.014 0a.085.085 0 0 0-.048-.074c.03.009.046.031.055.076.009.045 0 .04.01 0a.093.093 0 0 0 0-.038.07.07 0 0 1 .01.035v.04h.73v-.054a.058.058 0 0 1 0-.031.086.086 0 0 0 0 .036v.057-.052a.119.119 0 0 1 .021-.055.102.102 0 0 0-.01.062c0 .043 0 .043.01 0a.088.088 0 0 1 .033-.069l.012-.009a.134.134 0 0 1 .036.014c.017.012.031.016.038.012.007-.003.012.047.02.074.028.093.202.14.235.062a.05.05 0 0 0 .03-.015c.016-.02.013-.024-.016-.024-.03 0-.038 0-.038.015a.019.019 0 0 0 0 .014H7.267c.036-.015.019-.028-.048-.031h.012a.031.031 0 0 1 0-.019.08.08 0 0 1 .062-.014.879.879 0 0 0 .156.02c.1 0 .136.015.154.039.017.024.048.038.084 0 .036-.038.053-.042.06 0 .007.041.136.055.15.012.014-.043 0-.02-.016 0-.015.02-.108.014-.111-.022a.069.069 0 0 0 .127 0c0-.018 0-.018-.009 0a.045.045 0 0 1-.017.011s.012 0 .012-.008c0-.009-.063-.019-.084 0a.034.034 0 0 0-.024 0v-.012s.024.012.055.012c.03 0 .057 0 .03-.012-.028-.012 0 0-.016 0h.02c.085.022.126.012.126-.035 0-.046.012-.032.043-.032.031 0 .043 0 .043.041s0 .04.13.04c.132 0 .132 0 .132-.04v-.069h.344v.041c0 .031.009.04.036.04a.088.088 0 0 1 .06.03c.016.017.02.022.02.011.015.031.08.052.089.026l.003-.006a.015.015 0 0 1 .011-.005h.007s.017 0 .022-.023c.005-.024 0-.033-.065-.033-.066 0-.066 0-.071.016a.031.031 0 0 1 .012-.03.11.11 0 0 0 .05 0c.03 0 .048 0 .048-.008h.014l.046.022-.036.034c-.041.038-.03.044.04.02.024-.01.045-.026.045-.04 0-.014.02-.026.094-.026s.095 0 .102-.043v-.045.045c0 .065.24.069.306 0s.131-.055.131 0v.04h.344v-.04c0-.04 0-.041.131-.041s.131 0 .131.041v.04h.345v-.04c0-.035 0-.041.051-.041.052 0 .052 0 .052.041v.04h.49v-.059c.013.007.017.007.01 0v-.012l.02-.014a.063.063 0 0 1 .086-.012c.045.017.045.017.014 0l-.02-.01a.103.103 0 0 0 .038.008c.014.02.018.016.02-.015v-.016c0-.013.002-.026.005-.04 0 .02 0 .02.019 0a.047.047 0 0 1 .012-.013h.034a.056.056 0 0 0-.028.015c-.025.023-.027.093 0 .093.028 0 .018-.017.018-.04 0-.025.013-.04.029-.037-.016 0-.03.01-.03.036 0 .026.01.041.02.041s.015.013 0 .03c-.016.017 0 .022 0 .015 0-.007.027 0 .044.016.018.015.033.024.033-.026.01.052.012.048.016-.035 0-.056 0-.079-.014-.09a.08.08 0 0 1 .038.056v.035c-.01.046-.012.082 0 .082s.019-.014.024-.036v.036h.101c.095 0 .1 0 .1-.04s.186-.063.195 0c0 .035.014.037.172.037.158 0 .172 0 .172-.036 0-.037.086-.05.141 0 .055.05.043.04.345.04h.3l.013.04c0 .023.022.04.036.04.014 0 .017 0 0-.017a.09.09 0 0 0 .022.01c.042.012.112-.043.093-.072-.019-.03-.125-.024-.14 0a.024.024 0 0 0 0 .019.043.043 0 0 1 .018-.053s.014.012.048.012a.12.12 0 0 0 .067-.012c0 .01 0 0 .01-.016.011-.015 0-.038.104-.038.103 0 .102 0 .093-.038a.088.088 0 0 1 .012-.069.107.107 0 0 0-.01.064c0 .031 0 .031.01 0 0-.016.005-.03.014-.043a.097.097 0 0 0 0 .055c0 .043 0 .043 0 0a.066.066 0 0 1 .024-.05c-.026.024-.027.093 0 .093.028 0 .017-.017.017-.04 0 .025.01.04.026.04.015 0 .026-.014.026-.04 0 .052.058.049.067 0a.036.036 0 0 0 0-.024.07.07 0 0 1 .014.033c0 .043 0 .042.008 0 .009-.041-.04-.08-.087-.088a.09.09 0 0 1 .064.025.088.088 0 0 1 .027.063c0 .04 0 .047.017.028v-.016c0 .031 0 .031.102.031.101 0 .108 0 .105-.026a.12.12 0 0 0 0-.029.095.095 0 0 1 .008-.019.07.07 0 0 0 0 .033c0 .05 0 .05.012 0v-.03c-.01.03 0 .078.012.078s.018-.017.018-.04c0 .023 0 .04.017.04s.017-.017.017-.04c0 .023 0 .04.017.04s.023-.07 0-.093l-.012-.01c.02 0 .028.019.035.055.006.036.01.057.013 0a.16.16 0 0 0 0-.014c0 .019 0 .03.01.031.011.002 0 .024.044.024.043 0 .05 0 .05.041 0 .042 0 .04.14.04.139 0 .144 0 .171.035.028.034.086.027.1-.031a.47.47 0 0 1 .017-.064.7.7 0 0 1 .395.014c.012.043.093.041.117 0 .024-.042.036-.033.106-.033a.21.21 0 0 0 .131-.031.115.115 0 0 1 .047-.023.091.091 0 0 0-.036.02c-.018.013-.024.02-.014.015 0 0 0 .009.02.01a.04.04 0 0 1 .018.012.065.065 0 0 0-.031 0c-.023 0-.043 0-.043.016 0 .015.05.065.07.065.02 0 .017-.017.017-.04 0 .021 0 .039.018.039.041 0 .012-.075-.026-.086.026 0 .036.011.045.046.008.034.012.04.013.014a.098.098 0 0 0-.032-.078c.015.01.027.026.032.043l.01.031v.03h.128c.102 0 .12 0 .11.02a.075.075 0 0 0-.053-.013h-.041c.012 0 0 0 .01.008.01.009-.02 0 0 .017.01.006.02.01.03.014h.054c-.005 0 .031-.055.06-.055a.137.137 0 0 1 .066.041.14.14 0 0 0 .091.04.065.065 0 0 0 .07-.04c.016-.034.03-.041.1-.041.04 0 .079-.006.116-.017 0 0-.01.008 0 .012.01.003.024 0 .041 0a.066.066 0 0 1 .062 0c.017.008.031.012.031 0 .006.003.01.007.014.012 0 .01.026 0 .048 0h.03a.573.573 0 0 1 .13-.026c.03 0 .06-.009.086-.024.02-.012.03-.023.026-.023h-.026.018c.024-.036.172-.015.196.026.033.07.315.054.315-.017 0-.019.03-.024.14-.024.137 0 .139 0 .139.041v.04h.251c.184 0 .252 0 .258.02.007.021.016.018.045 0a.276.276 0 0 1 .105-.02c.092 0 .123-.012.123-.05 0-.038.015-.031.184-.031h.182v.041c0 .04 0 .04.164.04.163 0 .253-.015.253-.055s.03-.03.038.012c.007.041.14.06.187.019-.022.026-.02.027.012.01a.358.358 0 0 1 .142-.008h.062-.026.015c.088 0 .086 0 .093-.024 0 .029 0 .04-.02.032-.021-.008-.01 0-.01 0h-.125c-.119 0-.155 0-.151.02.008.053.063.068.158.046-.017.008 0 .015.052 0 .077-.012.148-.071.148-.12 0-.05-.01-.042-.024-.044.012 0 .024 0 .029.036v.047-.048a.072.072 0 0 0-.01-.038c.01.01.016.023.019.038a.1.1 0 0 0 .008.032l-.008.023h.155c.154 0 .156 0 .156-.04s.255-.064.264 0v.036h.874l.035-.04c.05-.06.31-.061.318 0 0 .032.02.037.09.042.07.005.086.01.1.043.013.033.027.04.043.04.015 0 .017 0 0-.02a.21.21 0 0 0 .1.01.194.194 0 0 0 .082-.044c.009 0 .01 0 0 0s.012-.02 0-.02 0 0-.012.011a.367.367 0 0 0-.196 0c-.01.016.008.028.038.037h-.012l-.025-.01a.035.035 0 0 1 0-.049.437.437 0 0 0 .081 0c.036-.003.072-.007.107-.014 0 0 .024 0 .024-.02 0-.021.012-.033.095-.033.082 0 .096 0 .096.041 0 .042.009.04.043.04.035 0 .043.01.047.038.003.027.136.055.15.014.013-.042 0-.018-.03 0 .037-.023.043-.047.012-.047h-.036c-.03 0-.04 0-.032.019a.038.038 0 0 0-.033-.022h.069a.06.06 0 0 0 .04-.04.04.04 0 0 1-.01.031h.014c.03 0 .045 0 .038-.036a.028.028 0 0 1 0-.017c0 .022.01.043.021.044.01.002.069-.022.053-.038h-.01l.038-.032h-.047c-.036 0-.048 0-.048.032a.05.05 0 0 0 0 .018.071.071 0 0 1 0-.02.1.1 0 0 0 0-.02.042.042 0 0 1 .031-.014h.016c.027 0 .036 0 .027-.01a.16.16 0 0 0 .066.017.05.05 0 0 1 .053.042c0 .022.019.04.027.04.01 0 .013-.011 0-.034v-.008c.01.01.02.02.03.027-.012.031.024.054.05.03.026-.024.012-.02 0-.02a.041.041 0 0 0 .017-.037c0-.022 0-.041-.02-.041-.021 0-.018.013-.013.037.005.024 0 .03 0 .021v-.012a.043.043 0 0 0-.024-.043c-.022 0-.022 0 0 .017v.01a.076.076 0 0 0-.03-.02c0-.016.021-.026.05-.026.058 0 .085.031.063.067-.023.036 0 .03.242.03.21 0 .25 0 .254-.02.003-.018 0 .01 0 .01 0 .003.013-.01.012-.034a.09.09 0 0 1 0-.02l.008-.009a.045.045 0 0 1 .036-.019.022.022 0 0 0-.013 0 .098.098 0 0 0-.01.054c0 .04 0 .04.015 0l.014-.049v.047c0 .036.008.043.022.03a.06.06 0 0 0 .01-.02v.023c0-.004 0-.01.01-.016.011-.005 0 .024 0 .024s.018-.027.014-.055v.055h.13c.125 0 .13 0 .14-.04a.048.048 0 0 1 .054-.04c.033 0 .041 0 .041.04 0 .042 0 .04.131.04s.13 0 .13-.04 0-.04.044-.04c.045 0 .043 0 .043.04v.04h.172c.05.004.1 0 .148-.01 0 0-.01-.009-.013-.016a.03.03 0 0 0 0-.013c.017-.066.094-.068.079 0v.025c0 .002 0 .018.101.018.102 0 .123 0 .123-.04s0-.041.096-.041.095 0 .095.041v.04h.504l.01-.04c.018-.062.181-.062.181 0s0 .04.131.04c.13 0 .13 0 .13-.042v-.041h.139c.115 0 .14 0 .146-.02a.067.067 0 0 0 .027 0h-.01c-.01 0 0 .01.03.011 0 0 .008 0 .013.01a.056.056 0 0 0-.026 0c-.024 0-.044.011-.043.021a.06.06 0 0 0 .055.059c.023 0 .031 0 .031-.038 0 .02.009.038.02.038.039 0 .01-.076-.03-.088a.085.085 0 0 0 .04 0 .079.079 0 0 1 .027.052v.051-.056a.101.101 0 0 0-.029-.066.081.081 0 0 1 .034.066v.046h.405c.39 0 .406 0 .427.034.02.035.03.028.04.023 0 0 0 .009 0 0 0 .01 0 .015.012.009.012-.007 0-.01 0-.018a.017.017 0 0 1 .02 0 .124.124 0 0 0 .124-.008c.038-.042.024-.057-.053-.057a.199.199 0 0 1-.067 0 .145.145 0 0 0 .053 0h.02a.088.088 0 0 1-.065-.047.052.052 0 0 0-.036-.036.053.053 0 0 0-.05.01.048.048 0 0 0-.02.04.048.048 0 0 0 .02.04.009.009 0 0 0 .012 0c0 .024.009.043.016.043.007 0 0 0 0 .01a.174.174 0 0 0-.024-.026c-.057-.051-.066-.079-.033-.117 0 0 .02 0 .048-.014.028-.013.038-.008.062.026-.026-.017-.053-.03-.064-.022-.01.007-.02.015 0 0 .021-.016.037 0 .049.03.012.032.063.073.074.056.01-.017 0-.012 0-.019.036.022.07.038.07.02 0-.017-.017-.018-.04-.023.023 0 .04.015.04.024a.434.434 0 0 0 .172.015c.173 0 .173 0 .173-.034v-.036l.027.036c.041.053.146.043.146-.016a.606.606 0 0 1 .367-.01c0 .012.009 0 .017-.016a.027.027 0 0 1 .009-.013.131.131 0 0 0 .04 0c.044 0 .056 0 .07.03l.01.018v.009c0 .032 0 .036.052.036s.062 0 .072.041c.002.01.007.021.015.028a.045.045 0 0 0 .03.012c.033 0 .033 0 0-.031-.032-.031-.03-.038-.024-.056h.069a.274.274 0 0 0 .074-.022c.01-.009 0-.01-.047 0h.026-.051c.07 0 .094-.03.094-.091a.1.1 0 0 1 .016-.06.144.144 0 0 0-.014.067v.056l.01-.063a.139.139 0 0 1 .01-.035.033.033 0 0 0 .018 0c-.014.023-.012.097 0 .097s0-.01 0-.024a.034.034 0 0 0 .012.017c.01 0 .017 0 .017-.031 0 .03 0 .038.02.026a.065.065 0 0 0-.016-.095.053.053 0 0 1 .034.053c0 .038 0 .04.01 0a.07.07 0 0 0-.03-.07.066.066 0 0 1 .03.07.08.08 0 0 0 0 .031.059.059 0 0 1-.027.013c-.041 0-.047.015-.03.058a.066.066 0 0 0 .08.018.065.065 0 0 0 .022-.018h.016-.021c-.002 0 .019.01.052 0 .02 0 .04-.005.058-.014h.012c.012.006.02.016.026.028 0 .022.012.032.014.02s.074-.02.306-.02h.305l.016.041c.013.033.027.04.082.04.055 0 .16-.028.12-.031 0 0 0-.012.015-.026a.098.098 0 0 0 .027-.066c0-.03.009-.04.043-.04.035 0 .043 0 .043.042 0 .041 0 .04.13.04.132 0 .165-.02.104-.105.016.019.02.01.02-.049a.4.4 0 0 0 0-.063h.023c0 .008-.012.026-.012.067 0 .078.014.09.059.048a.067.067 0 0 0 .026-.064.067.067 0 0 0-.044-.053h.035c-.003 0 0-.014.022-.014.023 0 .028 0 .028-.046 0 .012.003.025.008.036.01 0 .016 0 .01-.017a.18.18 0 0 1 0-.035v.017a.155.155 0 0 0 0-.063v-.074a.67.67 0 0 0 .013-.124.09.09 0 0 1 .027 0 .045.045 0 0 0-.012.029h.016c-.017.191-.014.29.008.29.049 0 .083-.071.062-.123a.229.229 0 0 1-.013-.095.136.136 0 0 0-.01-.07c.025.018.029.018.02 0a.041.041 0 0 0-.033-.028h.076c.034 0 .05-.012.059-.041.008-.03.02-.042.065-.042s.052 0 .015-.017a.066.066 0 0 1-.03-.026v-.02c.01-.031.024-.042.06-.04.036.002.046 0 .017-.02h-.01c.02 0 .04.022.04.039s.017.019.054.015c.12-.013.136-.02.136-.062 0-.041.009-.04.035-.04.026 0 .062-.06.043-.113-.02-.053.036-.072-.03-.067ZM25.412 22.221c-1.227.044-2.258-1.25-2.258-2.805V8.011h5.143v-.77H23.16V0h-.442c-.521 4.132-2.583 6.755-5.607 7.568v.443h3.246v10.587c0 2.77 1.513 4.32 4.39 4.32.97 0 1.583-.316 2.296-1.098-.006 0-.407.366-1.631.401ZM16.993 22.252c-.923-.028-1.275-1.216-1.275-3.216v-7.307c0-3.359-1.838-5.013-5.496-5.013-2.917 0-5.758 1.7-5.758 4.099 0 1.107.665 2.144 1.662 2.144.997 0 1.697-.695 1.697-1.661 0-.627-.212-1.27-1.004-1.554-.942-.333-1.232.696-1.25.06C5.53 8.5 8.225 7.228 9.592 7.237c2.541.017 3.356 1.251 3.356 3.284v2.798c-1.023.49-2.103.85-3.215 1.072-2.953.627-6.384 1.366-6.384 4.577 0 2.288 1.965 3.95 5.057 3.95 2.397 0 3.726-1.43 4.796-3.766.331 2.77 1.474 3.765 2.987 3.765.817 0 1.551-.144 2.11-1 .01 0-.284.368-1.307.335Zm-4.04-4.937c0 2.584-1.993 5.131-4.096 5.131-1.809 0-2.583-1.329-2.583-3.027 0-3.431 1.771-4.022 4.644-4.834a10.75 10.75 0 0 0 2.034-.745v3.475ZM45.785 17.468c-.563 2.607-2.387 5.341-6.886 5.341-4.731 0-7.263-3.303-7.263-8.05 0-4.559 2.742-8.26 7.466-8.26 5.094 0 6.574 3.65 6.684 5.464h-3.881c-.292-1.338-1.071-2.331-2.88-2.331-2.14 0-3.353 1.867-3.353 4.999 0 3.367 1.253 5.067 3.319 5.067 1.584 0 2.451-.911 2.89-2.23h3.904ZM61.277 18.554c0 1.469.122 3.5.212 3.892H57.7c-.12-.317-.21-1.121-.226-1.634-.56.91-1.658 1.997-4.471 1.997-3.74 0-5.322-2.454-5.322-4.867 0-3.535 2.826-5.162 7.407-5.162h2.316v-1.02c0-1.167-.406-2.382-2.606-2.382-1.99 0-2.397.885-2.607 2.032h-3.783c.229-2.642 1.857-4.934 6.54-4.912 4.093.023 6.33 1.638 6.33 5.31v6.746Zm-3.867-3.302h-1.92c-2.71 0-3.823.808-3.823 2.459 0 1.234.782 2.234 2.414 2.234 2.954 0 3.33-2.041 3.33-4.264v-.43ZM65.32 10.877c0-1.347 0-2.699-.03-4.016h3.796c.054.398.138 1.328.155 1.972.773-1.216 2.05-2.335 4.373-2.335 2.233 0 3.526 1.15 4.084 2.46.895-1.317 2.268-2.46 4.837-2.46 2.675 0 4.933 1.632 4.933 5.719V22.44h-3.874v-9.743c0-1.493-.54-2.982-2.45-2.982-1.984 0-2.78 1.34-2.78 3.81v8.915h-3.892v-9.597c0-1.698-.434-3.105-2.405-3.105-1.912 0-2.826 1.28-2.826 4.017v8.689h-3.92V10.877ZM95.448 20.948v7.496h-3.94V10.628c0-1.264 0-2.526-.032-3.767h3.841c.082.68.125 1.365.13 2.05.706-1.236 2.138-2.413 4.65-2.413 3.522 0 6.208 2.955 6.208 7.762 0 5.513-3.018 8.548-6.79 8.548-2.267 0-3.445-.88-4.067-1.86Zm6.824-6.535c0-2.955-1.228-4.703-3.412-4.703-2.616 0-3.572 1.672-3.572 4.952 0 3.128.855 4.965 3.385 4.965 2.402 0 3.599-1.898 3.599-5.214ZM122.866 17.913c0 1.505 0 3.238.03 4.531h-3.89c-.061-.417-.091-1.276-.113-1.912-.89 1.6-2.295 2.277-4.384 2.277-3.058 0-5.192-1.797-5.192-5.775V6.862h3.959v9.367c0 1.792.557 3.313 2.578 3.313 2.161 0 3.039-1.163 3.039-4.423V6.862h3.966l.007 11.051ZM129.441 17.803c.347 1.342 1.419 2.104 3.127 2.104 1.707 0 2.39-.662 2.39-1.706 0-1.098-.679-1.551-3.07-2.137-4.94-1.216-5.793-2.74-5.793-4.92 0-2.27 1.619-4.646 6.169-4.646 4.549 0 6.196 2.526 6.338 4.65h-3.778c-.156-.67-.622-1.825-2.729-1.825-1.588 0-2.084.721-2.084 1.49 0 .86.521 1.278 3.114 1.888 5.095 1.188 5.875 2.927 5.875 5.212 0 2.606-2.005 4.884-6.566 4.884-4.562 0-6.537-2.231-6.891-4.999l3.898.005Z"/>
    </g>
    <defs>
        <clipPath id="a">
            <path
                    fill="#fff"
                    d="M0 0h139v28.448H0z"
            />
        </clipPath>
    </defs>
</svg>
